<mxfile host="app.diagrams.net" modified="2021-08-27T12:07:48.750Z" agent="5.0 (Windows NT 10.0; Win64; x64) AppleWebKit/537.36 (KHTML, like Gecko) Chrome/92.0.4515.159 Safari/537.36" etag="IqNwIhmcJnZqHBEhCwlw" version="15.0.2" type="github">
  <diagram name="Page-1" id="7e0a89b8-554c-2b80-1dc8-d5c74ca68de4">
    <mxGraphModel dx="1502" dy="627" grid="1" gridSize="10" guides="1" tooltips="1" connect="1" arrows="1" fold="1" page="1" pageScale="1" pageWidth="1100" pageHeight="850" background="none" math="0" shadow="0">
      <root>
        <mxCell id="0" />
        <mxCell id="1" parent="0" />
        <mxCell id="NQgjxFR_fLiNA_bZTj3B-9" value="" style="verticalLabelPosition=bottom;shadow=0;dashed=0;align=center;html=1;verticalAlign=top;shape=mxgraph.electrical.transistors.pmos;pointerEvents=1;rotation=-180;flipV=1;" vertex="1" parent="1">
          <mxGeometry x="340" y="160" width="60" height="100" as="geometry" />
        </mxCell>
        <mxCell id="NQgjxFR_fLiNA_bZTj3B-10" value="" style="verticalLabelPosition=bottom;shadow=0;dashed=0;align=center;html=1;verticalAlign=top;shape=mxgraph.electrical.transistors.pmos;pointerEvents=1;" vertex="1" parent="1">
          <mxGeometry x="540" y="160" width="60" height="100" as="geometry" />
        </mxCell>
        <mxCell id="NQgjxFR_fLiNA_bZTj3B-11" value="" style="verticalLabelPosition=bottom;shadow=0;dashed=0;align=center;html=1;verticalAlign=top;shape=mxgraph.electrical.transistors.nmos;pointerEvents=1;" vertex="1" parent="1">
          <mxGeometry x="540" y="320" width="60" height="100" as="geometry" />
        </mxCell>
        <mxCell id="NQgjxFR_fLiNA_bZTj3B-12" value="" style="verticalLabelPosition=bottom;shadow=0;dashed=0;align=center;html=1;verticalAlign=top;shape=mxgraph.electrical.transistors.nmos;pointerEvents=1;rotation=-180;flipV=1;" vertex="1" parent="1">
          <mxGeometry x="340" y="320" width="60" height="100" as="geometry" />
        </mxCell>
        <mxCell id="NQgjxFR_fLiNA_bZTj3B-20" value="" style="endArrow=none;html=1;" edge="1" parent="1">
          <mxGeometry width="50" height="50" relative="1" as="geometry">
            <mxPoint x="340" y="350" as="sourcePoint" />
            <mxPoint x="340" y="240" as="targetPoint" />
          </mxGeometry>
        </mxCell>
        <mxCell id="NQgjxFR_fLiNA_bZTj3B-21" value="" style="endArrow=none;html=1;" edge="1" parent="1">
          <mxGeometry width="50" height="50" relative="1" as="geometry">
            <mxPoint x="600" y="350" as="sourcePoint" />
            <mxPoint x="600" y="240" as="targetPoint" />
          </mxGeometry>
        </mxCell>
        <mxCell id="NQgjxFR_fLiNA_bZTj3B-22" value="" style="endArrow=none;html=1;entryX=0;entryY=0.5;entryDx=0;entryDy=0;entryPerimeter=0;exitX=0;exitY=0.5;exitDx=0;exitDy=0;exitPerimeter=0;" edge="1" parent="1" source="NQgjxFR_fLiNA_bZTj3B-12" target="NQgjxFR_fLiNA_bZTj3B-9">
          <mxGeometry width="50" height="50" relative="1" as="geometry">
            <mxPoint x="400" y="367" as="sourcePoint" />
            <mxPoint x="400" y="257.14" as="targetPoint" />
          </mxGeometry>
        </mxCell>
        <mxCell id="NQgjxFR_fLiNA_bZTj3B-23" value="" style="endArrow=none;html=1;entryX=0;entryY=0.5;entryDx=0;entryDy=0;entryPerimeter=0;exitX=0;exitY=0.5;exitDx=0;exitDy=0;exitPerimeter=0;" edge="1" parent="1">
          <mxGeometry width="50" height="50" relative="1" as="geometry">
            <mxPoint x="540" y="370" as="sourcePoint" />
            <mxPoint x="540" y="210" as="targetPoint" />
          </mxGeometry>
        </mxCell>
        <mxCell id="NQgjxFR_fLiNA_bZTj3B-51" value="" style="endArrow=none;html=1;exitX=1;exitY=0;exitDx=0;exitDy=0;exitPerimeter=0;entryX=1;entryY=0;entryDx=0;entryDy=0;entryPerimeter=0;edgeStyle=orthogonalEdgeStyle;rounded=0;" edge="1" parent="1" source="NQgjxFR_fLiNA_bZTj3B-9" target="NQgjxFR_fLiNA_bZTj3B-10">
          <mxGeometry width="50" height="50" relative="1" as="geometry">
            <mxPoint x="340" y="150.00285714285712" as="sourcePoint" />
            <mxPoint x="600" y="150.00285714285712" as="targetPoint" />
            <Array as="points">
              <mxPoint x="340" y="140" />
              <mxPoint x="600" y="140" />
            </Array>
          </mxGeometry>
        </mxCell>
        <mxCell id="NQgjxFR_fLiNA_bZTj3B-52" value="" style="endArrow=none;html=1;rounded=0;jumpStyle=arc;entryX=1;entryY=1;entryDx=0;entryDy=0;entryPerimeter=0;exitX=1;exitY=1;exitDx=0;exitDy=0;exitPerimeter=0;" edge="1" parent="1" source="NQgjxFR_fLiNA_bZTj3B-12" target="NQgjxFR_fLiNA_bZTj3B-11">
          <mxGeometry width="50" height="50" relative="1" as="geometry">
            <mxPoint x="340" y="460" as="sourcePoint" />
            <mxPoint x="600" y="460" as="targetPoint" />
            <Array as="points">
              <mxPoint x="340" y="440" />
              <mxPoint x="470" y="440" />
              <mxPoint x="600" y="440" />
            </Array>
          </mxGeometry>
        </mxCell>
        <mxCell id="NQgjxFR_fLiNA_bZTj3B-53" value="M3" style="verticalLabelPosition=bottom;shadow=0;dashed=0;align=center;html=1;verticalAlign=top;shape=mxgraph.electrical.transistors.nmos;pointerEvents=1;direction=south;" vertex="1" parent="1">
          <mxGeometry x="200" y="230" width="100" height="60" as="geometry" />
        </mxCell>
        <mxCell id="NQgjxFR_fLiNA_bZTj3B-54" value="M4" style="verticalLabelPosition=bottom;shadow=0;dashed=0;align=center;html=1;verticalAlign=top;shape=mxgraph.electrical.transistors.nmos;pointerEvents=1;direction=south;" vertex="1" parent="1">
          <mxGeometry x="640" y="250" width="100" height="60" as="geometry" />
        </mxCell>
        <mxCell id="NQgjxFR_fLiNA_bZTj3B-58" value="" style="endArrow=oval;html=1;jumpStyle=arc;jumpSize=13;startArrow=oval;startFill=1;endFill=1;" edge="1" parent="1">
          <mxGeometry width="50" height="50" relative="1" as="geometry">
            <mxPoint x="340" y="290" as="sourcePoint" />
            <mxPoint x="540" y="290" as="targetPoint" />
          </mxGeometry>
        </mxCell>
        <mxCell id="NQgjxFR_fLiNA_bZTj3B-60" value="" style="endArrow=none;html=1;" edge="1" parent="1">
          <mxGeometry width="50" height="50" relative="1" as="geometry">
            <mxPoint x="270" y="290" as="sourcePoint" />
            <mxPoint x="340" y="290" as="targetPoint" />
          </mxGeometry>
        </mxCell>
        <mxCell id="NQgjxFR_fLiNA_bZTj3B-61" value="" style="endArrow=oval;html=1;jumpStyle=arc;jumpSize=13;startArrow=oval;startFill=1;endFill=1;" edge="1" parent="1">
          <mxGeometry width="50" height="50" relative="1" as="geometry">
            <mxPoint x="400" y="310" as="sourcePoint" />
            <mxPoint x="600" y="310" as="targetPoint" />
          </mxGeometry>
        </mxCell>
        <mxCell id="NQgjxFR_fLiNA_bZTj3B-62" value="" style="endArrow=none;html=1;entryX=1.001;entryY=1.675;entryDx=0;entryDy=0;entryPerimeter=0;" edge="1" parent="1" target="NQgjxFR_fLiNA_bZTj3B-54">
          <mxGeometry width="50" height="50" relative="1" as="geometry">
            <mxPoint x="600" y="310" as="sourcePoint" />
            <mxPoint x="640" y="310" as="targetPoint" />
          </mxGeometry>
        </mxCell>
        <mxCell id="NQgjxFR_fLiNA_bZTj3B-64" value="M1" style="text;html=1;resizable=0;autosize=1;align=center;verticalAlign=middle;points=[];fillColor=none;strokeColor=none;rounded=0;" vertex="1" parent="1">
          <mxGeometry x="327" y="360" width="30" height="20" as="geometry" />
        </mxCell>
        <mxCell id="NQgjxFR_fLiNA_bZTj3B-65" value="M5" style="text;html=1;resizable=0;autosize=1;align=center;verticalAlign=middle;points=[];fillColor=none;strokeColor=none;rounded=0;" vertex="1" parent="1">
          <mxGeometry x="327" y="200" width="30" height="20" as="geometry" />
        </mxCell>
        <mxCell id="NQgjxFR_fLiNA_bZTj3B-66" value="&lt;span style=&quot;color: rgb(0 , 0 , 0) ; font-family: &amp;#34;helvetica&amp;#34; ; font-size: 12px ; font-style: normal ; font-weight: 400 ; letter-spacing: normal ; text-align: center ; text-indent: 0px ; text-transform: none ; word-spacing: 0px ; background-color: rgb(248 , 249 , 250) ; display: inline ; float: none&quot;&gt;M6&lt;/span&gt;" style="text;whiteSpace=wrap;html=1;" vertex="1" parent="1">
          <mxGeometry x="590" y="197" width="40" height="30" as="geometry" />
        </mxCell>
        <mxCell id="NQgjxFR_fLiNA_bZTj3B-67" value="&lt;span style=&quot;color: rgb(0 , 0 , 0) ; font-family: &amp;#34;helvetica&amp;#34; ; font-size: 12px ; font-style: normal ; font-weight: 400 ; letter-spacing: normal ; text-align: center ; text-indent: 0px ; text-transform: none ; word-spacing: 0px ; background-color: rgb(248 , 249 , 250) ; display: inline ; float: none&quot;&gt;M2&lt;/span&gt;" style="text;whiteSpace=wrap;html=1;" vertex="1" parent="1">
          <mxGeometry x="590" y="356" width="40" height="30" as="geometry" />
        </mxCell>
        <mxCell id="NQgjxFR_fLiNA_bZTj3B-68" value="VDD" style="verticalLabelPosition=top;verticalAlign=bottom;shape=mxgraph.electrical.signal_sources.vdd;shadow=0;dashed=0;align=center;strokeWidth=1;fontSize=24;html=1;flipV=1;" vertex="1" parent="1">
          <mxGeometry x="450" y="120" width="55" height="20" as="geometry" />
        </mxCell>
        <mxCell id="NQgjxFR_fLiNA_bZTj3B-71" value="" style="pointerEvents=1;verticalLabelPosition=bottom;shadow=0;dashed=0;align=center;html=1;verticalAlign=top;shape=mxgraph.electrical.signal_sources.signal_ground;" vertex="1" parent="1">
          <mxGeometry x="455" y="440" width="45" height="30" as="geometry" />
        </mxCell>
        <mxCell id="NQgjxFR_fLiNA_bZTj3B-72" value="" style="endArrow=none;html=1;" edge="1" parent="1">
          <mxGeometry width="50" height="50" relative="1" as="geometry">
            <mxPoint x="760" y="440" as="sourcePoint" />
            <mxPoint x="760" y="140" as="targetPoint" />
          </mxGeometry>
        </mxCell>
        <mxCell id="NQgjxFR_fLiNA_bZTj3B-77" value="BLB" style="edgeLabel;html=1;align=center;verticalAlign=middle;resizable=0;points=[];" vertex="1" connectable="0" parent="NQgjxFR_fLiNA_bZTj3B-72">
          <mxGeometry x="0.8227" y="-1" relative="1" as="geometry">
            <mxPoint x="-1" y="-27" as="offset" />
          </mxGeometry>
        </mxCell>
        <mxCell id="NQgjxFR_fLiNA_bZTj3B-73" value="" style="endArrow=none;html=1;" edge="1" parent="1">
          <mxGeometry width="50" height="50" relative="1" as="geometry">
            <mxPoint x="180" y="440" as="sourcePoint" />
            <mxPoint x="180" y="130" as="targetPoint" />
          </mxGeometry>
        </mxCell>
        <mxCell id="NQgjxFR_fLiNA_bZTj3B-76" value="BL" style="edgeLabel;html=1;align=center;verticalAlign=middle;resizable=0;points=[];" vertex="1" connectable="0" parent="NQgjxFR_fLiNA_bZTj3B-73">
          <mxGeometry x="0.8542" relative="1" as="geometry">
            <mxPoint y="-23" as="offset" />
          </mxGeometry>
        </mxCell>
        <mxCell id="NQgjxFR_fLiNA_bZTj3B-74" value="" style="endArrow=oval;html=1;endFill=1;" edge="1" parent="1">
          <mxGeometry width="50" height="50" relative="1" as="geometry">
            <mxPoint x="730" y="310" as="sourcePoint" />
            <mxPoint x="760" y="310" as="targetPoint" />
          </mxGeometry>
        </mxCell>
        <mxCell id="NQgjxFR_fLiNA_bZTj3B-75" value="" style="endArrow=none;html=1;endFill=0;startArrow=oval;startFill=1;" edge="1" parent="1">
          <mxGeometry width="50" height="50" relative="1" as="geometry">
            <mxPoint x="180" y="290" as="sourcePoint" />
            <mxPoint x="220" y="290" as="targetPoint" />
          </mxGeometry>
        </mxCell>
        <mxCell id="NQgjxFR_fLiNA_bZTj3B-78" value="q" style="text;html=1;resizable=0;autosize=1;align=center;verticalAlign=middle;points=[];fillColor=none;strokeColor=none;rounded=0;" vertex="1" parent="1">
          <mxGeometry x="337" y="290" width="20" height="20" as="geometry" />
        </mxCell>
        <mxCell id="NQgjxFR_fLiNA_bZTj3B-79" value="qb" style="text;html=1;resizable=0;autosize=1;align=center;verticalAlign=middle;points=[];fillColor=none;strokeColor=none;rounded=0;" vertex="1" parent="1">
          <mxGeometry x="595" y="290" width="30" height="20" as="geometry" />
        </mxCell>
        <mxCell id="NQgjxFR_fLiNA_bZTj3B-85" value="" style="endArrow=oval;html=1;startArrow=none;startFill=0;endFill=1;entryX=0;entryY=0.5;entryDx=0;entryDy=0;entryPerimeter=0;" edge="1" parent="1" target="NQgjxFR_fLiNA_bZTj3B-53">
          <mxGeometry width="50" height="50" relative="1" as="geometry">
            <mxPoint x="250" y="200" as="sourcePoint" />
            <mxPoint x="250" y="220" as="targetPoint" />
          </mxGeometry>
        </mxCell>
        <mxCell id="NQgjxFR_fLiNA_bZTj3B-86" value="WL" style="edgeLabel;html=1;align=center;verticalAlign=middle;resizable=0;points=[];" vertex="1" connectable="0" parent="NQgjxFR_fLiNA_bZTj3B-85">
          <mxGeometry x="-0.661" relative="1" as="geometry">
            <mxPoint x="1" as="offset" />
          </mxGeometry>
        </mxCell>
        <mxCell id="NQgjxFR_fLiNA_bZTj3B-87" value="" style="endArrow=oval;html=1;startArrow=none;startFill=0;endFill=1;entryX=0;entryY=0.5;entryDx=0;entryDy=0;entryPerimeter=0;" edge="1" parent="1">
          <mxGeometry width="50" height="50" relative="1" as="geometry">
            <mxPoint x="689.5799999999999" y="220" as="sourcePoint" />
            <mxPoint x="689.5799999999999" y="250" as="targetPoint" />
          </mxGeometry>
        </mxCell>
        <mxCell id="NQgjxFR_fLiNA_bZTj3B-88" value="WL" style="edgeLabel;html=1;align=center;verticalAlign=middle;resizable=0;points=[];" vertex="1" connectable="0" parent="NQgjxFR_fLiNA_bZTj3B-87">
          <mxGeometry x="-0.661" relative="1" as="geometry">
            <mxPoint x="1" as="offset" />
          </mxGeometry>
        </mxCell>
        <mxCell id="NQgjxFR_fLiNA_bZTj3B-89" value="0.92u/0.4u" style="text;html=1;resizable=0;autosize=1;align=center;verticalAlign=middle;points=[];fillColor=none;strokeColor=none;rounded=0;fontSize=14;" vertex="1" parent="1">
          <mxGeometry x="210" y="310" width="80" height="20" as="geometry" />
        </mxCell>
        <mxCell id="NQgjxFR_fLiNA_bZTj3B-90" value="0.92u/0.4u" style="text;html=1;resizable=0;autosize=1;align=center;verticalAlign=middle;points=[];fillColor=none;strokeColor=none;rounded=0;strokeWidth=1;fontSize=14;" vertex="1" parent="1">
          <mxGeometry x="650" y="330" width="80" height="20" as="geometry" />
        </mxCell>
        <mxCell id="NQgjxFR_fLiNA_bZTj3B-91" value="3.4u/0.4u" style="text;html=1;resizable=0;autosize=1;align=center;verticalAlign=middle;points=[];fillColor=none;strokeColor=none;rounded=0;fontSize=14;" vertex="1" parent="1">
          <mxGeometry x="270" y="380" width="70" height="20" as="geometry" />
        </mxCell>
        <mxCell id="NQgjxFR_fLiNA_bZTj3B-92" value="3.4u/0.4u" style="text;html=1;resizable=0;autosize=1;align=center;verticalAlign=middle;points=[];fillColor=none;strokeColor=none;rounded=0;fontSize=14;" vertex="1" parent="1">
          <mxGeometry x="600" y="380" width="70" height="20" as="geometry" />
        </mxCell>
        <mxCell id="NQgjxFR_fLiNA_bZTj3B-93" value="0.6u/0.4u" style="text;html=1;resizable=0;autosize=1;align=center;verticalAlign=middle;points=[];fillColor=none;strokeColor=none;rounded=0;fontSize=14;" vertex="1" parent="1">
          <mxGeometry x="270" y="170" width="70" height="20" as="geometry" />
        </mxCell>
        <mxCell id="NQgjxFR_fLiNA_bZTj3B-94" value="0.6u/0.4u" style="text;html=1;resizable=0;autosize=1;align=center;verticalAlign=middle;points=[];fillColor=none;strokeColor=none;rounded=0;fontSize=14;" vertex="1" parent="1">
          <mxGeometry x="600" y="170" width="70" height="20" as="geometry" />
        </mxCell>
      </root>
    </mxGraphModel>
  </diagram>
</mxfile>
